<svg id="Layer_1" data-name="Layer 1" xmlns="http://www.w3.org/2000/svg" viewBox="0 0 100 100"><defs><style>.cls-1{fill:#ea4335;}.cls-1,.cls-2{fill-rule:evenodd;}.cls-2{fill:#fff;}.cls-3{fill:#3c4043;}</style></defs><polygon class="cls-1" points="87.5 25.16 12.5 25.16 12.5 74.84 87.56 74.84 87.5 25.16"/><path class="cls-2" d="M59.06,48.86,50.65,44l-8.4-4.83a1.24,1.24,0,0,0-1.29,0,1.26,1.26,0,0,0-.66,1.12l0,9.69,0,9.7a1.28,1.28,0,0,0,1.92,1.1l7.82-4.54.57-.33,8.39-4.86A1.29,1.29,0,0,0,59.06,48.86Z"/><path class="cls-3" d="M67.87,79.56A17.31,17.31,0,1,1,85.28,62.25,17.38,17.38,0,0,1,67.87,79.56Zm0-28.8A11.49,11.49,0,1,0,79.43,62.25,11.54,11.54,0,0,0,67.87,50.76Z"/><path class="cls-3" d="M90.32,88.19a3,3,0,0,1-2.08-.85L75.71,74.78a2.89,2.89,0,0,1,0-4.11,2.94,2.94,0,0,1,4.13,0L92.39,83.24a2.9,2.9,0,0,1,0,4.11A2.94,2.94,0,0,1,90.32,88.19Z"/></svg>